<svg width="64" height="64" viewBox="0 0 64 64" fill="none" xmlns="http://www.w3.org/2000/svg">
  <path d="M20 13.5H44C45.7 13.5 47 14.8 47 16.5V52H41.5V19H22.5V52H17V16.5C17 14.8 18.3 13.5 20 13.5Z" fill="#112B45"/>
  <path d="M23.5 19H41.5V52H23.5V19Z" fill="#FFD26A"/>
  <path d="M28 21.5L41.5 18V53L28 49.2V21.5Z" fill="#A6582A"/>
  <path d="M38.9 18.7L41.5 18V53L38.9 52.2V18.7Z" fill="#773E27"/>
  <path d="M30 24.8L37.1 23V48.7L30 46.7V24.8Z" fill="#D5803E"/>
  <circle cx="35.4" cy="33.5" r="1.6" fill="#FFD66E"/>
  <path d="M15.5 52H48.5C49.3 52 50 52.7 50 53.5V56H14V53.5C14 52.7 14.7 52 15.5 52Z" fill="#355C65"/>
  <path d="M25 53H40C40.7 53 41.2 53.5 41.2 54.2V56H23.8V54.2C23.8 53.5 24.3 53 25 53Z" fill="#FFD26A" opacity="0.75"/>
</svg>
